<?xml version="1.0" encoding="utf-8"?>
<!-- Generator: Adobe Illustrator 23.0.4, SVG Export Plug-In . SVG Version: 6.00 Build 0)  -->
<svg version="1.1" xmlns="http://www.w3.org/2000/svg" xmlns:xlink="http://www.w3.org/1999/xlink" x="0px" y="0px"
	 viewBox="0 0 127.56 127.56" style="enable-background:new 0 0 127.56 127.56;" xml:space="preserve">
<style type="text/css">
	.st0{fill:#0C71B7;stroke:#0C71B7;stroke-width:16;stroke-linecap:round;}
	.st1{fill:#74B2E1;}
</style>
<g id="area">
</g>
<g id="Layer_3">
	<path class="st0" d="M54.5,72.5c0,0,6.41,0.03,14.91,2.53S84.45,91.01,89.5,85s8.75-19.25,8.75-19.25"/>
	<path class="st0" d="M69.41,75.03"/>
	<path class="st0" d="M113,81.25"/>
</g>
<g id="map">
	<g>
		<path class="st1" d="M44.17,31.1c0,0,0,0,0.48-0.05c0.48-0.05,0.1-0.24,0.1-0.48c0-0.24,0.19-0.1,0.43-0.24
			c0.24-0.14,0,0,0.19-0.05c0.19-0.05,0.19-0.24,0.19-0.24l0.34,0.1c0,0,0.43-0.38,0.48-0.58c0.05-0.19,0-0.24,0.1-0.38
			c0.1-0.14,0.34,0.05,0.34,0.05s0,0,0.48,0.19c0.48,0.19,0,0,0.19,0c0.19,0,0.43,0.34,0.43,0.34s0.29,0.24,0.43,0.43
			c0.14,0.19,0.19,0.29,0.19,0.29s0.19,0.14,0.58,0.53c0.38,0.38,0.34,0.1,0.34,0.1s0.05,0.29,0.1,0.62
			c0.05,0.34-0.05,0.14-0.05,0.38c0,0.24,0.19-0.14,0.19-0.14s0.38-0.19,0.38-0.34s0.14-0.24,0.14-0.24s0.38,0.05,0.62,0.05
			c0.24,0,0.38,0.05,0.58-0.05c0.19-0.1,0.29,0.1,0.48,0.1c0.19,0,0.29,0.05,0.48,0.05c0.19,0,0.34-0.1,0.38-0.38
			c0.05-0.29-0.14-0.29-0.19-0.48c-0.05-0.19-0.14-0.29-0.29-0.43c-0.14-0.14,0.14-0.82,0.14-0.82s0.48,0,0.53-0.19
			c0.05-0.19,0.19-0.34,0.24-0.48c0.05-0.14,0-0.29,0.14-0.48c0.14-0.19,0.14,0.05,0.48-0.14c0.34-0.19,0.1-0.24,0-0.58
			c-0.1-0.34,0-0.24,0.05-0.38c0.05-0.14,0.24-0.24,0.43-0.29c0.19-0.05,0.29-0.19,0.29-0.19s0.14-0.34,0.19-0.48
			c0.05-0.14,0.14-0.24,0.58-0.38c0.43-0.14-0.1-0.38,0-0.58c0.1-0.19,0.62-0.24,0.62-0.24l0.53,0.14c0,0,0,0,0.14,0.05
			c0.14,0.05,0.29,0.1,0.58,0.1c0.29,0,0.38-0.05,0.53-0.05s0.14,0.1,0.82,0.05c0.67-0.05,0.53-0.34,0.53-0.34l0.24-0.24
			c0,0,0.05-0.48,0-0.62c-0.05-0.14,0-0.53,0.38-0.53s0.14-0.14,0.62-0.14s0.34,0.53,0.72,0.62c0.38,0.1,0.19,0.1,0.38,0.1
			c0.19,0,0.14,0.1,0.43,0.19c0.29,0.1,0.14,0.05,0.34,0.1c0.19,0.05,0.19,0,0.48,0.19c0.29,0.19,0.14,0.1,0.53,0.29
			c0.38,0.19,0.29,0.05,0.29,0.05s0.24-0.05,0.63-0.19c0.38-0.14,0.38,0.19,0.38,0.19s0,0,0.72,0.24c0.72,0.24,0.48-0.05,0.48-0.05
			s0,0,0.14-0.19c0.14-0.19,0.29,0.1,0.29,0.1s0,0,0.34,0.19c0.34,0.19,0.19,0,0.19,0h0.34c0,0,0.14,0.1,0.19,0.29
			c0.05,0.19,0.14,0.29,0.14,0.29s0.53-0.38,0.58-0.53c0.05-0.14,0.05-0.48,0.05-0.48l0.29-0.19c0,0,0.19,0.05,0.24,0.24
			c0.05,0.19,0.14,0.34,0.14,0.34s0.43,0.05,0.58,0.1c0.14,0.05,0.24,0.14-0.05,0.48c-0.29,0.34-0.1,0.29-0.48,0.48
			c-0.38,0.19-0.05,0.1-0.24,0.34c-0.19,0.24,0,0-0.05,0.34c-0.05,0.34,0.05,0.1,0.05,0.29s-0.29,0.1-0.29,0.1s-0.14,0.05-0.29,0
			c-0.14-0.05-0.19-0.05-0.38,0.05c-0.19,0.1-0.24,0-0.24,0s-0.19,0.05-0.24,0.19c-0.05,0.14,0,0.19-0.14,0.53
			c-0.14,0.34,0.05,0.14,0.1,0.48c0.05,0.34,0.24,0.05,0.24,0.29s-0.14,0.34-0.29,0.53c-0.14,0.19,0,0.14-0.19,0.29
			c-0.19,0.14-0.14,0.29-0.34,0.58c-0.19,0.29-0.05,0.24-0.24,0.48c-0.19,0.24,0,0-0.29,0.34c-0.29,0.34,0.1,0.19,0.1,0.43
			c0,0.24,0.24,0.19,0.24,0.19s0.14,0.24,0.38,0.34c0.24,0.1,0.29,0.14,0.29,0.14s0.29,0.14,0.48,0.34
			c0.19,0.19,0.14,0.19,0.43,0.38c0.29,0.19,0.24-0.1,0.43,0c0.19,0.1,0.14,0.1,0.24,0.24c0.1,0.14,0.05,0.14,0.43,0.38
			c0.38,0.24,0.43,0,0.43,0l0.38,0.24c0,0,0.24,0.19,0.62,0.43c0.38,0.24,0.34,0.19,0.34,0.19s0.14,0.1,0.34,0.34
			c0.19,0.24,0.14,0.1,0.34,0.43c0.19,0.34,0.19,0.14,0.53,0.43c0.34,0.29,0,0,0.38,0.19c0.38,0.19,0.62,0.19,1.15,0.29
			c0.53,0.1,0.72,0,0.58,0.34c-0.14,0.34,0.14,0.14,0,0.43c-0.14,0.29,0.19,0.38,0.48,0.58c0.29,0.19,0.62,0.34,1.06,0.53
			c0.43,0.19,0.67,0.24,1.11,0.19c0.43-0.05,1.01-0.43,1.11-0.62c0.1-0.19,0.24-1.01,0.67-1.44c0.43-0.43,0.1-0.67,0.38-1.25
			c0.29-0.58,0.24-0.43,0.24-0.82c0-0.38,0.34-0.53,0.29-0.82c-0.05-0.29,0.19-0.48,0.34-0.62c0.14-0.14,0.14-0.58-0.05-0.87
			c-0.19-0.29-0.14-0.86,0.05-1.15c0.19-0.29-0.05-0.43-0.14-0.87c-0.1-0.43,0.14-0.38,0.14-0.58c0-0.19,0.14-0.53,0.29-0.67
			c0.14-0.14,0.24-0.34,0.05-0.62c-0.19-0.29,0.05-0.58,0.19-0.87c0.14-0.29-0.05-0.38-0.05-0.38s-0.1-0.14,0-0.29
			c0.1-0.14,0.14-0.38,0.34-0.67c0.19-0.29,0.29-0.48,0.34-0.72c0.05-0.24,0,0,0-0.29c0-0.29,0.34-0.43,0.43-0.96
			c0.1-0.53,0.14-0.48,0.48-0.67c0.34-0.19,0.29-0.58,0.34-0.72c0.05-0.14,0.38,0.05,0.38,0.05l0.14,0.19c0,0,0.1,0.19,0.14,0.38
			c0.05,0.19,0.24,0.48,0.38,0.82c0.14,0.34,0.1,0.19,0,0.58c-0.1,0.38,0.1,0.24,0.05,0.62c-0.05,0.38,0.29,0.43,0.29,0.43
			s0.43,0.19,0.24,0.34c-0.19,0.14-0.05,0.24-0.1,0.43c-0.05,0.19,0,0,0.38,0.43c0.38,0.43,0.24,0.19,0.19,0.53
			c-0.05,0.34-0.05,0.34,0.19,0.58c0.24,0.24,0,0-0.05,0.29c-0.05,0.29,0.19,0.72,0.14,0.87c-0.05,0.14,0.05,0.29-0.1,0.53
			c-0.14,0.24,0.1,0.43,0,0.72c-0.1,0.29,0.14,0.53,0.19,0.72c0.05,0.19,0.29,0.48,0.29,0.48l0.43,0.1c0,0,0.24-0.34,0.34-0.48
			c0.1-0.14,0.29,0.05,0.29,0.05s0.14-0.14,0.29-0.19c0.14-0.05,0.34,0.19,0.34,0.19l0.24,0.62c0,0,0.19,0.19,0.29,0.34
			c0.1,0.14,0.19,0.14,0.34,0.24c0.14,0.1,0.43,0.34,0.43,0.34s0.14,0.38,0.29,0.62c0.14,0.24-0.14,0.67-0.24,0.87
			c-0.1,0.19-0.1,0.38-0.1,0.82c0,0.43,0.1,0.14,0.24,0.67c0.14,0.53,0,0.14,0,0.62c0,0.48,0.14,0.48,0.14,0.48s0.1,0.24,0.29,0.58
			c0.19,0.34,0.34,0.34,0.43,0.48c0.1,0.14,0.1,0.24,0.1,0.38c0,0.14,0.1,0.24,0.05,0.58c-0.05,0.34,0.24,1.15,0,1.25
			c-0.24,0.1,0.1,0.58,0.1,0.58s0.24,0.19,0.29,0.38C89.5,40.9,89.5,41,89.4,41.29c-0.1,0.29,0.05,0.43,0,0.58
			c-0.05,0.14,0.24,0.19,0.62,0.43c0.38,0.24,0.43,0.34,0.62,0.43c0.19,0.1,0.19,0.14,0.48,0.34c0.29,0.19,0.29,0.1,0.58,0.34
			c0.29,0.24,0.14-0.05,0.24,0.43c0.1,0.48,0.24,0.29,0.29,0.43c0.05,0.14,0.29,0.19,0.67,0.34c0.38,0.14,0.34,0.05,0.34,0.24
			c0,0.19,0.05,0.14,0.53,0.19c0.48,0.05,0.43,0.29,0.43,0.29l0.14,0.24c0,0,0.34,0.24,0.34,0.48c0,0.24-0.29,0.14-0.58,0.14
			c-0.29,0-0.24,0.24-0.24,0.24s0.48,0.38,0.62,0.58c0.14,0.19,0.34,0.24,0.38,0.48c0.05,0.24,0,0.14,0.19,0.48
			c0.19,0.34,0.1,1.06,0.1,1.06s0.38,0.62,0.38,0.82c0,0.19-0.14,0.43-0.19,0.58c-0.05,0.14,0.1,0.34,0.48,0.34
			c0.38,0,0.1-0.34,0.1-0.34l0.14-0.58l0.24,0.14c0,0,0,0,0.34,0.34s0,0,0.19,0.34c0.19,0.34,0,0,0.24,0.19
			c0.24,0.19,0.19,0.14,0.34,0.1c0.14-0.05,0.29-0.19,0.29-0.19l0.1,0.38c0,0,0,0,0,0.24s0.1,0.14,0,0.43
			c-0.1,0.29-0.05,0.14-0.1,0.34c-0.05,0.19-0.1,0.24-0.1,0.24s0,0.14,0.1,0.43c0.1,0.29,0,0,0,0.14c0,0.14,0.05,0.29,0.05,0.29
			s0.34,0.14,0.48,0.14c0.14,0,0.24,0.1,0.24,0.1s0.1,0.19,0.1,0.34c0,0.14,0.1,0.24,0.14,0.53c0.05,0.29,0,0.24,0.38,0.43
			c0.38,0.19,0.29-0.05,0.58,0.43c0.29,0.48,0.1,0.14,0.14,0.53c0.05,0.38,0,0,0.24,0.48c0.24,0.48,0,0,0.34,0.19
			c0.34,0.19,0.1,0.14,0.19,0.38c0.1,0.24,0.1,0.38,0.14,0.72c0.05,0.34,0.19,0.43,0.38,0.43c0.19,0,0.62-0.1,0.62-0.1l0.43-1.11
			l0.05,0.43c0,0,0.1,0.48,0.05,0.67c-0.05,0.19-0.29,0.62-0.43,0.72c-0.14,0.1-0.14,0.29-0.19,0.48c-0.05,0.19-0.1,0.72-0.19,0.96
			c-0.1,0.24-0.1,0.82-0.1,0.82s0,0.29-0.05,0.58c-0.05,0.29-0.1,0.48-0.14,0.87c-0.05,0.38,0.29,0.58,0.53,0.77
			c0.24,0.19-0.05,0.24-0.14,0.48c-0.1,0.24-0.1,0.48,0,0.77c0.1,0.29,0.19,0.38,0.14,0.62c-0.05,0.24-0.14,0.82-0.14,1.01
			s0,0.19-0.19,0.38c-0.19,0.19-0.05,0.29-0.29,0.53c-0.24,0.24-0.14,0.14-0.24,0.29c-0.1,0.14-0.05,0.24-0.1,0.38
			c-0.05,0.14-0.05,0.62-0.24,0.96c-0.19,0.34-0.1,0.58-0.34,0.77c-0.24,0.19-0.14,0.38-0.34,0.62c-0.19,0.24,0.05,0.58-0.1,0.91
			c-0.14,0.34-0.05,0.24-0.34,0.77c-0.29,0.53-0.58,0.87-0.86,1.01c-0.29,0.14-0.14,0.19-0.29,0.58c-0.14,0.38-0.05,0.24-0.24,0.67
			c-0.19,0.43-0.1,0.19-0.48,0.34c-0.38,0.14-0.38,0.34-0.82,0.43c-0.43,0.1-0.24,0.24-0.48,0.67c-0.24,0.43-0.29,0.38-0.67,0.72
			c-0.38,0.34-0.14,0.34-0.19,0.72c-0.05,0.38-0.14,0.19-0.43,0.53c-0.29,0.34-0.34,0.53-0.53,0.72c-0.19,0.19,0,0-0.1,0.72
			c-0.1,0.72-0.05,0.29-0.48,0.67c-0.43,0.38-0.05,0.34-0.38,0.53c-0.34,0.19-0.24,0.29-0.58,0.53c-0.34,0.24-0.24,0.77-0.29,0.91
			c-0.05,0.14-0.05,0.48-0.14,0.77c-0.1,0.29-0.1,0.34-0.38,0.77C91.76,83.29,92,83.05,92,83.54s0.1,0.43,0.1,0.82
			c0,0.38-0.72,0.91-1.2,0.91c-0.48,0-1.11-0.29-1.35-0.38c-0.24-0.1-1.01,0.1-1.2,0.1c-0.19,0-0.38,0.24-0.72,0.29
			c-0.34,0.05-0.67,0.43-0.96,0.67c-0.29,0.24-0.53,0.62-0.77,0.77c-0.24,0.14-0.43,0.48-0.96,0.62c-0.53,0.14-0.43-0.19-0.62-0.53
			c-0.19-0.34-0.14-0.24-0.43-0.43c-0.29-0.19-0.48-0.24-0.72-0.48c-0.24-0.24-0.91-0.14-0.91-0.14s-0.05-0.24,0.34-0.38
			c0.38-0.14,0.34-0.24,0.24-0.43c-0.1-0.19,0.24-0.38-0.29-0.34c-0.53,0.05-0.77,0.05-0.77,0.05l-0.05,0.24c0,0,0.48,0,0.43,0.19
			c-0.05,0.19-0.24,0.29-0.24,0.29l-0.96,0.24c0,0-0.38,0.34-0.48,0.48c-0.1,0.14-0.29,0.34-0.48,0.29
			c-0.19-0.05-0.19,0.14-0.58-0.1c-0.38-0.24-0.38-0.24-0.38-0.24l-0.77-0.67l-0.67-0.24c0,0-0.62-0.24-0.82-0.14
			c-0.19,0.1-0.58,0-0.58,0s0.14,0-0.19-0.29c-0.34-0.29-0.72-0.38-0.72-0.38s-0.14,0-0.53-0.1c-0.38-0.1-0.29,0.19-0.38-0.1
			c-0.1-0.29,0.19,0.05-0.1-0.53c-0.29-0.58-0.29-0.43-0.62-0.77c-0.34-0.34-0.34-0.34-0.34-0.34V81.8c0,0-0.05-0.29,0.14-0.38
			c0.19-0.1,0.14-0.14,0-0.67c-0.14-0.53,0.05-0.29-0.24-0.72c-0.29-0.43-0.29-0.43-0.29-0.43l-0.19-0.53l-0.53-0.38l-0.24-0.19
			l-0.58-0.19l-0.29,0.24l-0.48,0.14c0,0-0.77,0.1-0.19-0.48c0.58-0.58,0.62-0.62,0.62-0.82c0-0.19,0-0.38,0-0.38
			s0.1-0.34,0.05-0.53c-0.05-0.19-0.1-0.38-0.1-0.38s-0.19-0.29-0.38-0.58c-0.19-0.29-0.24-0.38-0.24,0c0,0.38-0.34,0.58-0.34,0.58
			l-0.24,0.53c0,0-0.05,0.38-0.1,0.58c-0.05,0.19,0,0.43-0.38,0.34c-0.38-0.1-0.34-0.29-0.53-0.1c-0.19,0.19-0.43,0.34-0.58,0.29
			c-0.14-0.05,0.05-0.53,0.05-0.53s0.29-0.34,0.48-0.34c0.19,0,0.38,0.1,0.43-0.14c0.05-0.24,0.29-0.14,0-0.48
			c-0.29-0.34-0.34,0-0.1-0.48c0.24-0.48,0.29-0.58,0.34-0.72c0.05-0.14,0.19-0.43,0.19-0.43l0.29-0.34l0.14-0.34l0.14-0.38
			l-0.05-0.34l-0.19-0.1c0,0,0.48,0.1,0.38-0.29c-0.1-0.38,0.05-0.72-0.29-0.48c-0.34,0.24-0.53,0.29-0.53,0.29
			s-0.43,0.34-0.43,0.67c0,0.34-0.29,0.67-0.29,0.67s-0.19,0.29-0.58,0.38c-0.38,0.1-0.91,0.34-1.01,0.53
			c-0.1,0.19-0.34,0.24-0.34,0.43c0,0.19-0.14,0.29-0.14,0.29l-0.38,0.29l-0.14,0.38c0,0,0.38,0.67,0.05,0.67
			c-0.34,0-0.29-0.05-0.67-0.34c-0.38-0.29-0.58-0.53-0.58-0.53s0.14-0.24,0.29-0.29c0.14-0.05,0-0.34-0.05-0.53
			c-0.05-0.19-0.05-0.38-0.14-0.58c-0.1-0.19-0.1-0.19-0.1-0.19l-0.24-0.29l-0.38-0.14v-0.29l-0.05-0.72c0,0-0.05,0.05-0.38-0.1
			c-0.34-0.14-0.53-0.29-0.53-0.29l-0.53-0.29c0,0-0.1-0.58,0.19-0.62c0.29-0.05,0.24-0.19,0-0.34c-0.24-0.14-0.58-0.24-0.58-0.24
			l-0.38-0.67l-0.77-0.05c0,0-0.48,0.05-0.72-0.14c-0.24-0.19-0.53-0.29-0.53-0.29s-0.38,0.1-0.62,0.1c-0.24,0-0.38-0.05-0.38-0.05
			s0.14,0.05-0.34-0.29c-0.48-0.34-0.48-0.34-0.48-0.34l-0.72-0.29l-0.48,0.05l-0.53,0.14c0,0,0.1,0.34-0.53,0.14
			c-0.62-0.19-0.24-0.19-0.62-0.19c-0.38,0-0.29,0.19-0.58,0.14c-0.29-0.05-0.43-0.05-0.67,0c-0.24,0.05-0.14-0.05-0.72,0.14
			c-0.58,0.19-0.77,0.19-0.91,0.34c-0.14,0.14-0.43,0.24-0.58,0.43c-0.14,0.19-0.62,0.43-1.06,0.48c-0.43,0.05-0.72,0.19-0.96,0.24
			c-0.24,0.05-0.82,0.29-1.49,0.19c-0.67-0.1-0.62-0.19-0.86-0.05s-0.38,0.05-0.72,0.38c-0.34,0.34-0.77,0.53-1.2,0.77
			c-0.43,0.24-0.48,0.43-1.01,0.53c-0.53,0.1-0.96,0.58-0.96,0.82c0,0.24,0,0.87-0.24,1.06c-0.24,0.19-0.48,0.38-0.72,0.53
			c-0.24,0.14-0.29,0.19-0.58,0.19c-0.29,0-0.48-0.1-0.67-0.05c-0.19,0.05-0.29,0.1-0.82,0.19c-0.53,0.1-0.91-0.05-1.11-0.1
			c-0.19-0.05-0.82-0.14-0.82-0.14s-0.53-0.1-0.87,0.05c-0.34,0.14,0.34,0.24-0.58,0.34c-0.91,0.1-1.39,0.38-1.39,0.38
			s-0.53,0.29-0.53,0.53s0.1,0.53-0.05,0.67c-0.14,0.14-0.43,0.05-0.62,0.14c-0.19,0.1-0.48,0.1-0.58,0.29
			c-0.1,0.19-0.58,0.34-0.62,0.58c-0.05,0.24-0.24,0.29-0.43,0.43c-0.19,0.14-0.96,0.43-1.3,0.38c-0.34-0.05-0.86,0.14-1.25,0.1
			c-0.38-0.05-0.62-0.14-0.87-0.29c-0.24-0.14-0.87-0.29-1.15-0.53c-0.29-0.24-0.38-0.43-0.82-0.53c-0.43-0.1-0.67-0.05-0.77-0.34
			c-0.1-0.29-0.34-0.91-0.1-0.96c0.24-0.05,0.24-0.05,0.48-0.24c0.24-0.19,0.72-0.14,0.62-0.77c-0.1-0.62-0.34-0.43-0.29-1.06
			c0.05-0.62-0.1-0.67-0.05-0.82c0.05-0.14,0.14-0.19,0.1-0.48c-0.05-0.29,0-0.29-0.05-0.53c-0.05-0.24-0.1-0.48-0.1-0.48
			s0-0.38-0.34-0.72c-0.34-0.34-0.38-0.67-0.67-0.91c-0.29-0.24-0.48-0.19-0.67-0.62c-0.19-0.43-0.48-0.91-0.48-1.44
			c0-0.53-0.19-1.3-0.34-1.63c-0.14-0.34-0.14-0.34-0.34-0.62c-0.19-0.29-0.67-1.01-0.86-1.25c-0.19-0.24-0.38-0.24-0.53-0.53
			c-0.14-0.29-0.38-0.29-0.38-0.87c0-0.58-0.24-0.87-0.43-1.06c-0.19-0.19-0.48-0.48-0.67-0.67c-0.19-0.19-0.29,0-0.48-0.34
			c-0.19-0.34-0.29-0.34-0.48-0.67c-0.19-0.34-0.1-0.1-0.34-0.48c-0.24-0.38-0.82-0.96-0.48-0.86c0.34,0.1,0.34,0.53,0.53,0.62
			c0.19,0.1,0.62,0.48,0.87,0.67c0.24,0.19,0.58,0.19,0.38-0.14c-0.19-0.34-0.24-0.38-0.48-0.72c-0.24-0.34-0.72-0.48-0.58-0.72
			c0.14-0.24,0.29-0.05,0.53,0.14c0.24,0.19,0.53,0.24,0.62,0.53c0.1,0.29,0.53,0.62,0.53,0.62s0.34-0.38,0.29-0.72
			c-0.05-0.34-0.43-0.77-0.82-1.25c-0.38-0.48-0.91-0.87-0.91-1.2c0-0.34-0.38-0.53-0.58-0.77c-0.19-0.24-0.43-1.2-0.1-1.68
			c0.34-0.48,0.43-0.58,0.38-0.96c-0.05-0.38-0.1-0.53-0.1-0.72c0-0.19,0-0.29-0.14-0.53c-0.14-0.24-0.38-0.38-0.14-0.82
			c0.24-0.43,0.19-0.82,0.24-1.01c0.05-0.19,0.1-0.82,0.29-0.34c0.19,0.48,0.14,0.96,0.24,1.11c0.1,0.14,0.43,0.14,0.53-0.05
			c0.1-0.19,0-0.24,0.14-0.62c0.14-0.38,0-0.58,0.29-0.72c0.29-0.14,0.05-0.14,0.58-0.38c0.53-0.24,0.34-0.24,0.77-0.43
			c0.43-0.19,0.29,0.05,0.58-0.43c0.29-0.48,0.19-0.53,0.43-0.77c0.24-0.24,0.19-0.14,0.38-0.34c0.19-0.19,0-0.19,0.48-0.29
			c0.48-0.1,0.14-0.14,0.29-0.29c0.14-0.14,0.1-0.53,0.34-0.53c0.24,0,0.19,0.53,0.48,0.34c0.29-0.19,0.38-0.19,0.62-0.14
			c0.24,0.05,0.53-0.14,0.82-0.14c0.29,0,0.24,0.1,0.43-0.19c0.19-0.29,0.19-0.48,0.53-0.62c0.34-0.14,0.62-0.24,0.77-0.24
			c0.14,0,0.62-0.05,0.87-0.34c0.24-0.29,0.14-0.48,0.72-0.48c0.58,0,0.82,0,1.15-0.19c0.34-0.19,0-0.19,0.87-0.38
			c0.86-0.19,0.91-0.24,1.01-0.38c0.1-0.14,0.05-0.1,0.34-0.24c0.29-0.14,0.29-0.24,0.48-0.38c0.19-0.14,0.58-0.43,0.67-0.67
			s0.1-0.58,0.24-0.82c0.14-0.24,0.19-0.48,0.24-0.67c0.05-0.19,0-0.24,0.19-0.34c0.19-0.1,0.24-0.34,0.53-0.53
			c0.29-0.19,0.29-0.24,0.43-0.43c0.14-0.19,0.53,0.29,0.14-0.19c-0.38-0.48-0.38-0.24-0.38-0.48c0-0.24,0.14-0.14-0.05-0.38
			c-0.19-0.24-0.29-0.24-0.19-0.48c0.1-0.24,0.24-0.67,0.53-0.96c0.29-0.29,0.29-0.38,0.38-0.53c0.1-0.14,0.1-0.38,0.34-0.43
			c0.24-0.05,0.24,0,0.38,0.05c0.14,0.05,0.43,0.19,0.53,0.38c0.1,0.19,0.29,0.34,0.29,0.48c0,0.14,0.19,0.53,0.19,0.53
			s0.24,0.53,0.43,0.24c0.19-0.29,0.14-0.48,0.34-0.62c0.19-0.14,0.34-0.38,0.34-0.38s0.14-0.05,0.05-0.24
			c-0.1-0.19-0.19-0.38-0.19-0.38l-0.34-0.19c0,0-0.67-0.43-0.14-0.53c0.53-0.1,0.86-0.1,0.86-0.1s0.24-0.14,0.34,0.1
			c0.1,0.24-0.19,0.62,0.19,0.43c0.38-0.19,0.14,0.14,0.43-0.29c0.29-0.43-0.05-0.29,0.29-0.43c0.34-0.14,0.1-0.14,0-0.29
			c-0.1-0.14-0.1-0.24,0.14-0.62c0.24-0.38,0.43-0.34,0.34-0.58c-0.1-0.24,0.34-0.14-0.1-0.24c-0.43-0.1-0.34,0.14-0.43-0.1
			c-0.1-0.24-0.24-0.24-0.05-0.38c0.19-0.14,0.24-0.14,0.43-0.05c0.19,0.1,0.38,0.24,0.53,0.14c0.14-0.1,0.24,0.29,0.14-0.1
			c-0.1-0.38-0.53-0.58-0.14-0.67c0.38-0.1,0.58,0,0.58,0s0.29,0.1,0.29-0.14s0.05-0.24-0.1-0.38c-0.14-0.14-0.24-0.24-0.29-0.38
			c-0.05-0.14-0.05-0.19,0.14-0.34C43.69,31.29,44.17,31.1,44.17,31.1z"/>
		<path class="st1" d="M87.14,91.95l-0.33,0.14c0,0-0.26,0.17-0.36,0.19c-0.09,0.02-0.31,0.02-0.4-0.05
			c-0.1-0.07-0.43-0.28-0.52-0.14c-0.1,0.14-0.43-0.28-0.1,0.14c0.33,0.43,0.28,0.8,0.28,0.8s-0.47,0-0.52-0.28
			c-0.05-0.28,0-0.24-0.19-0.24c-0.19,0-0.24,0.07-0.62-0.07c-0.38-0.14-0.45,0.09-0.68-0.31c-0.24-0.4-0.43-0.26-0.69-0.38
			c-0.26-0.12,0.09,0.12-0.54-0.28c-0.64-0.4-0.76-0.38-0.83-0.24c-0.07,0.14-0.16,0.38-0.09,0.59c0.07,0.21,0.02,0.4,0.19,0.76
			c0.16,0.36,0.12,0.88,0.4,1.25c0.28,0.38,0.52,0.47,0.54,0.69c0.02,0.21,0.19,0.47,0.1,0.57c-0.1,0.1-0.19,0.17-0.19,0.17
			s-0.17,0.45,0,0.78c0.17,0.33,0.24,0.54,0.4,0.71c0.16,0.17,0.02-0.17,0.57,0.33c0.54,0.5,0.24,0.54,0.59,0.69
			c0.36,0.14,0.54,0.14,0.62,0.05c0.07-0.09,0.38-0.33,0.38-0.47c0-0.14-0.02-0.33,0.14-0.35c0.16-0.02,0.17-0.07,0.21-0.17
			c0.05-0.09,0.05-0.12,0.05-0.21c0-0.1-0.1-0.4,0-0.47c0.09-0.07,0.09-0.03,0.33,0.07c0.24,0.09,0.21,0.28,0.5,0.17
			c0.28-0.12,0.36-0.21,0.36-0.36c0-0.14-0.07-0.19,0.05-0.45c0.12-0.26,0.24-0.5,0.26-0.59c0.02-0.09-0.1-0.31,0.09-0.38
			c0.19-0.07,0.28,0.1,0.4-0.26c0.12-0.35,0.14-0.4,0.12-0.61c-0.02-0.21-0.19-0.26-0.07-0.47c0.12-0.21-0.07,0,0.12-0.21
			c0.19-0.21,0.14-0.31,0.12-0.57c-0.02-0.26,0.02-0.38-0.05-0.47C87.71,91.9,87.54,91.64,87.14,91.95z"/>
	</g>
	<g>
	</g>
	<g>
	</g>
	<g>
	</g>
	<g>
	</g>
	<g>
	</g>
	<g>
	</g>
	<g>
	</g>
	<g>
	</g>
	<g>
	</g>
	<g>
	</g>
	<g>
	</g>
	<g>
	</g>
</g>
</svg>
